<svg xmlns="http://www.w3.org/2000/svg" viewBox="0 0 64 64">
  <defs>
    <linearGradient id="bg" x1="8" y1="6" x2="56" y2="58" gradientUnits="userSpaceOnUse">
      <stop stop-color="#6F91FF"/>
      <stop offset="1" stop-color="#3452C5"/>
    </linearGradient>
  </defs>
  <rect width="64" height="64" rx="15" fill="#07111F"/>
  <path d="M15 10h34a5 5 0 0 1 5 5v34a5 5 0 0 1-5 5H15a5 5 0 0 1-5-5V15a5 5 0 0 1 5-5Z" fill="url(#bg)" opacity=".16"/>
  <path d="M39.8 16v25.1c0 7.3-4.3 11.2-11.3 11.2-5.5 0-9.3-2.5-11.5-6.6l7-4.2c1.2 2 2.3 3.1 4.1 3.1 2.2 0 3.4-1.2 3.4-4.2V16h8.3Z" fill="#F7F9FF"/>
  <circle cx="49" cy="17" r="3.5" fill="#6F91FF"/>
</svg>
