<svg xmlns="http://www.w3.org/2000/svg" viewBox="0 0 128 128">
  <path fill="#00599C" d="M122 31.4 69.7 1.2a11.5 11.5 0 0 0-11.4 0L6 31.4A11.4 11.4 0 0 0 .3 41.3v45.4c0 4.1 2.2 7.9 5.7 9.9l52.3 30.2a11.5 11.5 0 0 0 11.4 0L122 96.6c3.5-2 5.7-5.8 5.7-9.9V41.3c0-4.1-2.2-7.9-5.7-9.9Z"/>
  <path fill="#004482" d="m64 64 58 32.6c3.5-2 5.7-5.8 5.7-9.9V41.3c0-4.1-2.2-7.9-5.7-9.9L69.7 1.2A11.4 11.4 0 0 0 64 0v64Z"/>
  <path fill="#659AD2" d="m64 64-58 32.6 52.3 30.2a11.5 11.5 0 0 0 11.4 0L122 96.6 64 64Z"/>
  <path fill="#fff" d="M64 25.5c-21.2 0-38.5 17.3-38.5 38.5s17.3 38.5 38.5 38.5c13.7 0 26.5-7.4 33.3-19.2l-16.6-9.6A19.3 19.3 0 1 1 64 44.7c6.8 0 13.2 3.7 16.7 9.6l16.6-9.6A38.6 38.6 0 0 0 64 25.5Z"/>
</svg>
