<svg xmlns="http://www.w3.org/2000/svg" viewBox="0 0 128 128">
  <g transform="translate(64 64)">
    <path fill="#00F2E6" d="M-5-60h10v34l-5 7-5-7z"/>
    <path fill="#FB3E94" d="m29-52 9 5-17 29-8 3-1-9z"/>
    <path fill="#00F2E6" d="m52-29 5 9-29 17-9-1 4-8z"/>
    <path fill="#FB3E94" d="M60-5v10H26l-7-5 7-5z"/>
    <path fill="#00F2E6" d="m52 29-5 9-29-17-3-8 9-1z"/>
    <path fill="#FB3E94" d="m29 52-9 5-17-29 1-9 8 4z"/>
    <path fill="#00F2E6" d="M5 60H-5V26l5-7 5 7z"/>
    <path fill="#FB3E94" d="m-29 52-9-5 17-29 8-3 1 9z"/>
    <path fill="#00F2E6" d="m-52 29-5-9 29-17 9 1-4 8z"/>
    <path fill="#FB3E94" d="M-60 5V-5h34l7 5-7 5z"/>
    <path fill="#00F2E6" d="m-52-29 5-9 29 17 3 8-9 1z"/>
    <path fill="#FB3E94" d="m-29-52 9-5 17 29-1 9-8-4z"/>
    <circle r="15" fill="#F7F9FF"/>
    <circle r="7" fill="#07111F"/>
  </g>
</svg>
